<svg width="44" height="40" viewBox="0 0 44 40" fill="none" xmlns="http://www.w3.org/2000/svg">
<path fill-rule="evenodd" clip-rule="evenodd" d="M11.6007 3.54181C9.40896 3.54181 7.34921 4.35581 5.77896 5.84631C1.86846 9.55881 1.70621 16.0076 5.42146 19.9263L20.5245 35.8516C21.3165 36.6876 22.6667 36.6876 23.4615 35.8516L35.6412 23.0063C35.6825 22.9431 35.732 22.8853 35.7842 22.8303L38.581 19.8823C42.2962 15.9636 42.1312 9.51756 38.2207 5.80506H38.2235C36.5955 4.25956 34.4257 3.43731 32.1652 3.50331C29.6435 3.56931 27.163 4.69956 25.3535 6.60531L22.9802 9.10781C22.4605 9.65781 21.5007 9.65781 20.981 9.10781L18.649 6.64656C16.8367 4.74356 14.3535 3.61056 11.8317 3.54456C11.7547 3.54181 11.6777 3.54181 11.6007 3.54181ZM21.993 39.2478C20.6785 39.2478 19.4465 38.7143 18.528 37.7436L3.42221 21.8156C-1.31604 16.8188 -1.10704 8.59356 3.88146 3.85531C6.04296 1.80381 8.85621 0.71756 11.9032 0.79456C15.1537 0.87981 18.3382 2.32356 20.6455 4.75731L21.9792 6.16531L23.357 4.71331C25.6615 2.28231 28.846 0.83856 32.0937 0.75331C35.105 0.68456 37.9567 1.76256 40.1182 3.81131H40.121C45.1067 8.54956 45.3157 16.7748 40.5775 21.7716L37.9375 24.5573C37.8962 24.6206 37.8495 24.6783 37.7945 24.7333L25.458 37.7436C24.5395 38.7143 23.3075 39.2478 21.993 39.2478Z" fill="#FF5959"/>
</svg>
