<svg width="1440" height="900" viewBox="0 0 1440 900" fill="none" xmlns="http://www.w3.org/2000/svg">
    <g style="mix-blend-mode:soft-light">
        <path d="M1441.31 68.2442C1415.49 60.6484 1386.12 50.0142 1361.31 25.2011C1336.49 0.3881 1325.86 -28.9824 1318.26 -54.8083L1341.05 -61.8977C1348.14 -38.0974 1357.25 -12.778 1378.02 8.49033C1398.78 29.2523 1424.1 38.3673 1448.4 45.4567L1441.31 68.2442Z" fill="black" fill-opacity="0.3" />
        <path d="M1440.81 132.556C1429.16 127.998 1417.51 124.453 1404.85 120.909C1372.95 111.794 1340.04 102.172 1312.19 74.3209C1284.33 46.4696 1274.71 13.5543 1265.6 -18.3482C1262.05 -31.0079 1258.51 -42.6549 1253.95 -54.3018L1276.23 -62.9104C1281.3 -50.2507 1284.84 -37.591 1288.39 -24.9312C1297.5 5.45207 1305.6 33.8099 1328.9 57.6101C1352.19 80.904 1381.05 89.5126 1411.44 98.1212C1424.1 101.666 1436.76 105.717 1449.42 110.275L1440.81 132.556Z" fill="black" fill-opacity="0.3" />
        <path d="M1436.76 209.527C1413.46 186.739 1385.61 178.637 1355.74 170.028C1323.83 160.913 1290.92 151.292 1263.07 123.44C1235.21 95.5891 1225.59 62.6738 1216.48 30.7713C1207.87 0.894417 1199.26 -26.957 1176.98 -50.2508L1194.2 -66.9617C1221.04 -39.6167 1230.15 -7.2078 1239.27 24.1883C1248.38 54.5716 1256.48 82.9294 1279.78 106.73C1303.07 130.024 1331.93 138.632 1362.32 147.241C1393.71 156.356 1426.12 165.977 1453.47 192.816L1436.76 209.527Z" fill="black" fill-opacity="0.3" />
        <path d="M1433.72 356.379C1432.2 351.822 1430.68 346.758 1429.67 342.2C1420.55 311.817 1412.45 283.459 1389.16 259.659C1365.86 236.365 1337 227.757 1306.62 219.148C1274.71 210.033 1241.8 200.412 1213.95 172.56C1186.1 144.709 1176.47 111.794 1167.36 79.8911C1158.24 49.5077 1150.14 21.15 1126.85 -2.6503C1103.55 -25.9442 1074.69 -34.5528 1044.31 -43.1614C1039.75 -44.6806 1034.68 -45.6933 1030.13 -47.2125L1037.22 -70C1041.77 -68.4808 1046.33 -67.4681 1050.89 -65.9489C1082.79 -56.8339 1115.71 -47.2125 1143.56 -19.3611C1171.41 8.49025 1181.03 41.4055 1190.15 73.308C1199.26 103.691 1207.36 132.049 1230.66 155.849C1253.95 179.143 1282.82 187.752 1313.2 196.36C1345.1 205.475 1378.02 215.097 1405.87 242.948C1433.72 270.8 1443.34 303.715 1452.46 335.617C1453.97 340.175 1454.99 344.732 1456.51 349.29L1433.72 356.379Z" fill="black" fill-opacity="0.3" />
        <path d="M1437.26 493.611C1433.72 490.572 1430.17 487.534 1426.63 483.989C1398.78 456.138 1389.16 423.223 1380.04 391.32C1370.93 360.937 1362.82 332.579 1339.53 308.779C1316.24 285.485 1287.37 276.876 1256.99 268.268C1225.09 259.153 1192.17 249.531 1164.32 221.68C1136.47 193.828 1126.85 160.913 1117.73 129.011C1108.62 98.6274 1100.52 70.2696 1077.22 46.4693C1053.93 23.1755 1025.06 14.5669 994.68 5.95826C962.778 -3.15674 929.862 -12.7781 902.011 -40.6295C898.466 -44.1742 895.428 -47.7189 892.39 -51.2637L910.62 -66.4553C913.152 -63.417 915.684 -60.3787 918.722 -57.8467C942.016 -34.5528 970.88 -25.9442 1001.26 -17.3356C1033.17 -8.22063 1066.08 1.40076 1093.93 29.2521C1121.78 57.1035 1131.41 90.0188 1140.52 121.921C1149.64 152.305 1157.74 180.662 1181.03 204.463C1204.33 227.757 1233.19 236.365 1263.57 244.974C1295.48 254.089 1328.39 263.71 1356.24 291.561C1384.09 319.413 1393.71 352.328 1402.83 384.231C1411.94 414.614 1420.05 442.972 1443.34 466.772C1445.87 469.304 1448.91 472.342 1451.95 474.874L1437.26 493.611Z" fill="black" fill-opacity="0.3" />
        <path d="M1440.81 570.582C1422.58 563.999 1398.78 553.871 1377.51 533.109C1349.66 505.258 1340.04 472.343 1330.92 440.44C1321.81 410.057 1313.7 381.699 1290.41 357.899C1267.12 334.605 1238.25 325.996 1207.87 317.388C1175.97 308.273 1143.05 298.651 1115.2 270.8C1087.35 242.948 1077.73 210.033 1068.61 178.131C1059.5 147.747 1051.4 119.39 1028.1 95.5893C1004.81 72.2954 975.943 63.6868 945.56 55.0782C913.657 45.9632 880.742 36.3418 852.891 8.49042C831.622 -12.7779 821.495 -36.5782 815.418 -54.8082L837.699 -62.9104C843.269 -46.706 851.878 -26.4504 869.602 -8.7268C892.896 14.5671 921.76 23.1757 952.143 31.7843C984.045 40.8993 1016.96 50.5207 1044.81 78.3721C1072.66 106.223 1082.28 139.139 1091.4 171.041C1100.51 201.425 1108.62 229.782 1131.91 253.583C1155.2 276.876 1184.07 285.485 1214.45 294.094C1246.35 303.209 1279.27 312.83 1307.12 340.681C1334.97 368.533 1344.59 401.448 1353.71 433.351C1362.82 463.734 1370.93 492.092 1394.22 515.892C1411.94 533.616 1432.71 542.224 1448.4 547.794L1440.81 570.582Z" fill="black" fill-opacity="0.3" />
        <path d="M1441.31 634.893C1434.73 632.867 1427.64 630.842 1421.06 628.816C1389.16 619.701 1356.24 610.08 1328.39 582.229C1300.54 554.377 1290.92 521.462 1281.8 489.559C1272.69 459.176 1264.58 430.818 1241.29 407.018C1218 383.724 1189.13 375.116 1158.75 366.507C1126.85 357.392 1093.93 347.771 1066.08 319.919C1038.23 292.068 1028.61 259.153 1019.49 227.25C1010.38 196.867 1002.28 168.509 978.982 144.709C955.688 121.415 926.824 112.806 896.44 104.198C864.538 95.0826 831.623 85.4612 803.771 57.6098C775.92 29.7585 766.298 -3.15681 757.183 -35.0593C755.158 -41.6424 753.132 -48.7318 751.107 -55.3149L773.894 -62.4043C775.92 -55.3149 777.945 -48.7318 779.971 -41.6424C789.086 -11.259 797.188 17.0987 820.482 40.899C843.776 64.1929 872.64 72.8015 903.023 81.4101C934.926 90.5251 967.841 100.146 995.693 127.998C1023.54 155.849 1033.17 188.765 1042.28 220.667C1051.4 251.05 1059.5 279.408 1082.79 303.208C1106.09 326.502 1134.95 335.111 1165.33 343.719C1197.24 352.834 1230.15 362.456 1258 390.307C1285.85 418.159 1295.47 451.074 1304.59 482.976C1313.7 513.36 1321.81 541.717 1345.1 565.518C1368.39 588.812 1397.26 597.42 1427.64 606.029C1434.73 608.054 1441.82 610.08 1448.4 612.105L1441.31 634.893Z" fill="black" fill-opacity="0.3" />
        <path d="M1438.28 705.281C1418.53 691.609 1395.74 685.026 1371.94 677.936C1340.04 668.821 1307.12 659.2 1279.27 631.348C1251.42 603.497 1241.8 570.582 1232.68 538.679C1223.57 508.296 1215.47 479.938 1192.17 456.138C1168.88 432.844 1140.01 424.236 1109.63 415.627C1077.73 406.512 1044.81 396.89 1016.96 369.039C989.11 341.188 979.488 308.272 970.373 276.37C961.258 245.987 953.156 217.629 929.862 193.829C906.568 170.535 877.704 161.926 847.321 153.318C815.418 144.203 782.503 134.581 754.652 106.73C726.8 78.8784 717.179 45.9632 708.064 14.0607C700.975 -9.73959 694.392 -32.0207 680.719 -52.2762L700.468 -65.9487C716.673 -42.6549 723.762 -17.3354 730.852 6.97124C739.967 37.3546 748.069 65.7123 771.363 89.5126C794.657 113.313 823.521 121.415 853.904 130.024C885.807 139.139 918.722 148.76 946.573 176.611C974.425 204.463 984.046 237.378 993.161 269.281C1002.28 299.664 1010.38 328.022 1033.67 351.822C1056.97 375.116 1085.83 383.724 1116.21 392.333C1148.12 401.448 1181.03 411.069 1208.88 438.921C1236.73 466.772 1246.36 499.687 1255.47 531.59C1264.59 561.973 1272.69 590.331 1295.98 614.131C1319.28 637.425 1348.14 646.034 1378.52 654.642C1403.34 661.732 1428.66 669.328 1451.44 685.026L1438.28 705.281Z" fill="black" fill-opacity="0.3" />
        <path d="M1433.72 813.648C1426.12 794.406 1417.01 779.72 1404.85 767.567C1381.56 744.273 1352.7 735.664 1322.31 727.056C1290.41 717.941 1257.5 708.32 1229.64 680.468C1201.79 652.617 1192.17 619.701 1183.06 587.799C1173.94 557.416 1165.84 529.058 1142.55 505.258C1119.25 481.964 1090.39 473.355 1060 464.747C1028.1 455.632 995.186 446.01 967.335 418.159C939.484 390.307 929.862 357.392 920.747 325.49C911.632 295.106 903.53 266.749 880.236 242.948C856.942 219.654 828.078 211.046 797.695 202.437C765.792 193.322 732.877 183.701 705.026 155.849C677.174 127.998 667.553 95.0828 658.438 63.1803C649.323 32.797 641.221 4.43919 617.927 -19.3611C605.773 -31.5144 591.088 -40.6294 571.845 -48.2252L580.454 -70.5063C602.735 -61.8977 619.952 -50.7572 634.638 -36.5783C662.489 -8.72692 672.11 24.1883 681.225 56.0908C690.34 86.4742 698.443 114.832 721.736 138.632C745.03 161.926 773.895 170.535 804.278 179.143C836.18 188.258 869.096 197.88 896.947 225.731C924.798 253.582 934.42 286.498 943.535 318.4C952.65 348.783 960.752 377.141 984.046 400.942C1007.34 424.235 1036.2 432.844 1066.59 441.453C1098.49 450.568 1131.4 460.189 1159.26 488.04C1187.11 515.892 1196.73 548.807 1205.84 580.71C1214.96 611.093 1223.06 639.451 1246.36 663.251C1269.65 686.545 1298.51 695.153 1328.9 703.762C1360.8 712.877 1393.71 722.498 1421.57 750.35C1436.25 765.035 1446.89 782.252 1455.49 804.533L1433.72 813.648Z" fill="black" fill-opacity="0.3" />
        <path d="M1435.74 983.795C1413.46 957.969 1404.85 928.092 1396.25 899.228C1387.13 868.845 1379.03 840.487 1355.73 816.687C1332.44 793.393 1303.58 784.784 1273.19 776.176C1241.29 767.061 1208.38 757.439 1180.52 729.588C1152.67 701.736 1143.05 668.821 1133.94 636.919C1124.82 606.535 1116.72 578.178 1093.43 554.377C1070.13 531.083 1041.27 522.475 1010.88 513.866C978.982 504.751 946.066 495.13 918.215 467.279C890.364 439.427 880.742 406.512 871.627 374.609C862.512 344.226 854.41 315.868 831.116 292.068C807.822 268.774 778.958 260.166 748.575 251.557C716.672 242.442 683.757 232.821 655.906 204.969C628.054 177.118 618.433 144.203 609.318 112.3C600.203 81.9167 592.101 53.559 568.807 29.7587C545.513 6.46483 516.649 -2.14379 486.265 -10.7524C457.401 -19.361 428.031 -27.9696 401.698 -50.2507L416.89 -68.4807C439.171 -49.7443 464.997 -42.1485 492.848 -34.0463C524.751 -24.9313 557.666 -15.3099 585.518 12.5415C613.369 40.3929 622.99 73.3081 632.105 105.211C641.22 135.594 649.323 163.952 672.616 187.752C695.91 211.046 724.774 219.654 755.158 228.263C787.06 237.378 819.976 246.999 847.827 274.851C875.678 302.702 885.3 335.617 894.415 367.52C903.53 397.903 911.632 426.261 934.926 450.061C958.22 473.355 987.084 481.964 1017.47 490.572C1049.37 499.687 1082.28 509.309 1110.14 537.16C1137.99 565.012 1147.61 597.927 1156.72 629.829C1165.84 660.213 1173.94 688.57 1197.24 712.371C1220.53 736.171 1249.39 744.273 1279.78 752.882C1311.68 761.997 1344.59 771.618 1372.45 799.469C1400.3 827.321 1409.92 860.236 1419.03 892.139C1427.14 919.484 1434.73 945.816 1453.47 968.097L1435.74 983.795Z" fill="black" fill-opacity="0.3" />
        <path d="M1440.3 1071.91C1422.07 1063.8 1406.88 1053.68 1394.22 1041.02C1366.37 1013.17 1356.75 980.25 1347.63 948.348C1338.52 917.965 1330.42 889.607 1307.12 865.807C1283.83 842.513 1254.96 833.904 1224.58 825.296C1192.68 816.181 1159.76 806.559 1131.91 778.708C1104.06 750.856 1094.44 717.941 1085.32 686.039C1076.21 655.655 1068.11 627.297 1044.81 603.497C1021.52 580.203 992.654 571.595 962.271 562.986C930.369 553.871 897.453 544.25 869.602 516.398C841.751 488.547 832.129 455.632 823.014 423.729C813.899 393.346 805.797 364.988 782.503 341.188C759.209 317.894 730.345 309.285 699.962 300.677C668.059 291.562 635.144 281.94 607.293 254.089C579.441 226.238 569.82 193.322 560.705 161.42C551.59 131.037 543.488 102.679 520.194 78.8785C496.9 55.5846 468.036 46.976 437.652 38.3674C405.75 29.7588 372.835 20.1374 344.983 -7.71399C332.324 -20.3737 322.196 -35.5654 314.094 -53.7954L335.868 -63.4167C342.958 -47.7187 351.06 -35.5654 361.694 -24.4248C384.988 -1.13093 413.852 7.47768 444.236 16.0863C476.138 25.2013 509.053 34.8227 536.905 62.6741C564.756 90.5254 574.377 123.441 583.492 155.343C592.607 185.727 600.71 214.084 624.004 237.885C647.297 261.178 676.162 269.787 706.545 278.396C738.447 287.511 771.363 297.132 799.214 324.983C827.065 352.835 836.687 385.75 845.802 417.653C854.917 448.036 863.019 476.394 886.313 500.194C909.607 523.488 938.471 532.096 968.854 540.705C1000.76 549.82 1033.67 559.441 1061.52 587.293C1089.37 615.144 1099 648.059 1108.11 679.962C1117.23 710.345 1125.33 738.703 1148.62 762.503C1171.92 785.797 1200.78 794.406 1231.16 803.014C1263.07 812.129 1295.98 821.751 1323.83 849.602C1351.68 877.454 1361.31 910.369 1370.42 942.271C1379.54 972.655 1387.64 1001.01 1410.93 1024.81C1421.57 1035.45 1434.23 1043.55 1449.92 1050.64L1440.3 1071.91Z" fill="black" fill-opacity="0.3" />
        <path d="M1441.32 1138.24L1437.26 1137.23C1405.36 1128.12 1372.45 1118.49 1344.59 1090.64C1316.74 1062.79 1307.12 1029.88 1298.01 997.974C1288.89 967.59 1280.79 939.233 1257.5 915.432C1234.2 892.139 1205.34 883.53 1174.95 874.921C1143.05 865.806 1110.14 856.185 1082.29 828.334C1054.43 800.482 1044.81 767.567 1035.7 735.664C1026.58 705.281 1018.48 676.923 995.186 653.123C971.893 629.323 943.029 621.221 912.645 612.612C880.743 603.497 847.827 593.876 819.976 566.024C792.125 538.173 782.503 505.258 773.388 473.355C764.273 442.972 756.171 414.614 732.877 390.814C709.583 367.52 680.719 358.911 650.336 350.303C618.433 341.188 585.518 331.566 557.667 303.715C529.815 275.864 520.194 242.948 511.079 211.046C501.964 180.662 493.862 152.305 470.568 128.504C447.274 105.211 418.41 96.602 388.026 87.9934C356.124 78.8784 323.209 69.257 295.357 41.4056C267.506 13.5542 257.884 -19.3611 248.769 -51.2635L247.757 -55.3147L270.544 -61.8977L271.557 -57.8466C280.672 -27.4633 288.774 0.894497 312.068 24.6948C335.362 47.9886 364.226 56.5973 394.609 65.2059C426.512 74.3209 459.427 83.9423 487.279 111.794C515.13 139.645 524.751 172.56 533.866 204.463C542.981 234.846 551.084 263.204 574.377 287.004C597.671 310.298 626.536 318.907 656.919 327.515C688.821 336.63 721.737 346.252 749.588 374.103C777.439 401.954 787.061 434.87 796.176 466.772C805.291 497.155 813.393 525.513 836.687 549.313C859.981 572.607 888.845 581.216 919.228 589.825C951.131 598.94 984.046 608.561 1011.9 636.412C1039.75 664.264 1049.37 697.179 1058.49 729.081C1067.6 759.465 1075.7 787.823 1099 811.623C1122.29 835.423 1151.15 843.525 1181.54 852.134C1213.44 861.249 1246.36 870.87 1274.21 898.722C1302.06 926.573 1311.68 959.488 1320.79 991.391C1329.91 1021.77 1338.01 1050.13 1361.31 1073.93C1384.6 1097.23 1413.46 1105.83 1443.85 1114.44L1447.9 1115.46L1441.32 1138.24Z" fill="black" fill-opacity="0.3" />
        <path d="M1439.29 1204.58C1423.08 1196.48 1405.87 1191.41 1388.14 1186.35C1356.24 1177.24 1323.33 1167.61 1295.47 1139.76C1267.62 1111.91 1258 1079 1248.89 1047.09C1239.77 1016.71 1231.67 988.353 1208.38 964.552C1185.08 941.258 1156.22 932.65 1125.83 924.041C1093.93 914.926 1061.02 905.305 1033.17 877.453C1005.31 849.602 995.693 816.687 986.578 784.784C977.462 754.401 969.36 726.043 946.066 702.243C922.773 678.949 893.908 670.34 863.525 661.732C831.622 652.617 798.707 642.995 770.856 615.144C743.005 587.293 733.383 554.377 724.268 522.475C715.153 492.092 707.051 463.734 683.757 439.933C660.463 416.64 631.599 408.031 601.216 399.422C569.313 390.307 536.398 380.686 508.547 352.835C480.695 324.983 471.074 292.068 461.959 260.165C452.844 229.782 444.742 201.424 421.448 177.624C398.154 154.33 369.29 145.722 338.906 137.113C307.004 127.998 274.089 118.377 246.237 90.5252C218.386 62.6739 208.764 29.7586 199.649 -2.14391C194.586 -20.3739 189.522 -37.5911 181.419 -53.2892L202.688 -63.9233C211.803 -45.6933 217.373 -26.957 222.943 -8.72696C232.058 21.6564 240.161 50.0141 263.454 73.8144C286.748 97.1083 315.612 105.717 345.996 114.326C377.898 123.441 410.814 133.062 438.665 160.913C466.516 188.765 476.138 221.68 485.253 253.582C494.368 283.966 502.47 312.324 525.764 336.124C549.058 359.418 577.922 368.026 608.305 376.635C640.208 385.75 673.123 395.371 700.974 423.223C728.826 451.074 738.447 483.989 747.562 515.892C756.677 546.275 764.779 574.633 788.073 598.433C811.367 621.727 840.231 630.336 870.615 638.944C902.517 648.059 935.432 657.681 963.284 685.532C991.135 713.383 1000.76 746.299 1009.87 778.201C1018.99 808.585 1027.09 836.942 1050.38 860.743C1073.68 884.036 1102.54 892.645 1132.92 901.254C1164.83 910.369 1197.74 919.99 1225.59 947.841C1253.44 975.693 1263.07 1008.61 1272.18 1040.51C1281.3 1070.89 1289.4 1099.25 1312.69 1123.05C1335.99 1146.35 1364.85 1154.95 1395.23 1163.56C1413.46 1169.13 1432.71 1174.7 1450.43 1183.82L1439.29 1204.58Z" fill="black" fill-opacity="0.3" />
        <path d="M1435.24 1292.69C1431.19 1286.62 1426.63 1281.05 1421.57 1275.98C1398.27 1252.69 1369.41 1244.08 1339.02 1235.47C1307.12 1226.36 1274.21 1216.73 1246.36 1188.88C1218.5 1161.03 1208.88 1128.12 1199.77 1096.21C1190.65 1065.83 1182.55 1037.47 1159.26 1013.67C1135.96 990.378 1107.1 981.769 1076.72 973.161C1044.81 964.046 1011.9 954.424 984.046 926.573C956.195 898.722 946.573 865.806 937.458 833.904C928.343 803.521 920.241 775.163 896.947 751.363C873.653 728.069 844.789 719.46 814.406 710.852C782.503 701.737 749.588 692.115 721.737 664.264C693.885 636.412 684.264 603.497 675.149 571.595C666.034 541.211 657.932 512.854 634.638 489.053C611.344 465.759 582.48 457.151 552.096 448.542C520.194 439.427 487.279 429.806 459.427 401.954C431.576 374.103 421.955 341.188 412.84 309.285C403.725 278.902 395.622 250.544 372.328 226.744C349.035 203.45 320.17 194.841 289.787 186.233C257.885 177.118 224.969 167.496 197.118 139.645C169.267 111.794 159.645 78.8784 150.53 46.9759C141.415 16.5926 133.313 -11.7652 110.019 -35.5654C104.955 -40.6293 99.3849 -45.1868 93.3082 -49.2379L106.981 -68.4807C114.07 -63.4168 120.653 -57.8465 126.73 -51.7699C154.581 -23.9185 164.203 8.99676 173.318 40.8993C182.433 71.2826 190.535 99.6404 213.829 123.441C237.123 146.734 265.987 155.343 296.37 163.952C328.273 173.067 361.188 182.688 389.039 210.539C416.891 238.391 426.512 271.306 435.627 303.209C444.742 333.592 452.844 361.95 476.138 385.75C499.432 409.044 528.296 417.652 558.679 426.261C590.582 435.376 623.497 444.997 651.349 472.849C679.2 500.7 688.821 533.615 697.936 565.518C707.051 595.901 715.154 624.259 738.447 648.059C761.741 671.353 790.606 679.962 820.989 688.57C852.891 697.685 885.807 707.307 913.658 735.158C941.509 763.01 951.131 795.925 960.246 827.827C969.361 858.211 977.463 886.568 1000.76 910.369C1024.05 933.663 1052.91 942.271 1083.3 950.88C1115.2 959.995 1148.12 969.616 1175.97 997.468C1203.82 1025.32 1213.44 1058.23 1222.56 1090.14C1231.67 1120.52 1239.77 1148.88 1263.07 1172.68C1286.36 1195.97 1315.22 1204.58 1345.61 1213.19C1377.51 1222.3 1410.43 1231.93 1438.28 1259.78C1444.35 1265.85 1449.92 1272.44 1454.99 1279.53L1435.24 1292.69Z" fill="black" fill-opacity="0.3" />
        <path d="M1419.03 1428.4C1417.01 1421.31 1414.98 1414.73 1412.96 1407.64C1403.84 1377.26 1395.74 1348.9 1372.45 1325.1C1349.15 1301.81 1320.29 1293.2 1289.9 1284.59C1258 1275.47 1225.09 1265.85 1197.24 1238C1169.38 1210.15 1159.76 1177.24 1150.65 1145.33C1141.53 1114.95 1133.43 1086.59 1110.14 1062.79C1086.84 1039.5 1057.98 1030.89 1027.6 1022.28C995.693 1013.17 962.777 1003.54 934.926 975.693C907.075 947.841 897.453 914.926 888.338 883.024C879.223 852.64 871.121 824.282 847.827 800.482C824.533 777.188 795.669 768.58 765.286 759.971C733.383 750.856 700.468 741.235 672.617 713.383C644.765 685.532 635.144 652.617 626.029 620.714C616.914 590.331 608.812 561.973 585.518 538.173C562.224 514.879 533.36 506.27 502.976 497.662C471.074 488.547 438.159 478.925 410.307 451.074C382.456 423.223 372.835 390.307 363.72 358.405C354.605 328.022 346.502 299.664 323.208 275.864C299.915 252.57 271.05 243.961 240.667 235.352C208.765 226.237 175.849 216.616 147.998 188.765C120.147 160.913 110.525 127.998 101.41 96.0956C92.2952 65.7122 84.193 37.3545 60.8991 13.5542C37.6052 -9.73967 8.74109 -18.3483 -21.6422 -26.9569C-28.2253 -28.4761 -35.3147 -31.008 -42.4042 -33.0336L-34.8083 -55.821C-28.2253 -53.7955 -21.1358 -51.7699 -14.5528 -49.7444C17.3497 -40.6294 50.265 -31.008 78.1163 -3.15662C105.968 24.6948 115.589 57.61 124.704 89.5125C133.819 119.896 141.921 148.254 165.215 172.054C188.509 195.348 217.373 203.956 247.757 212.565C279.659 221.68 312.574 231.301 340.426 259.153C368.277 287.004 377.898 319.919 387.013 351.822C396.128 382.205 404.231 410.563 427.525 434.363C450.818 457.657 479.683 466.266 510.066 474.874C541.968 483.989 574.884 493.611 602.735 521.462C630.586 549.313 640.208 582.229 649.323 614.131C658.438 644.515 666.54 672.872 689.834 696.673C713.128 719.966 741.992 728.575 772.375 737.184C804.278 746.299 837.193 755.92 865.044 783.771C892.896 811.623 902.517 844.538 911.632 876.441C920.747 906.824 928.849 935.182 952.143 958.982C975.437 982.276 1004.3 990.884 1034.68 999.493C1066.59 1008.61 1099.5 1018.23 1127.35 1046.08C1155.21 1073.93 1164.83 1106.85 1173.94 1138.75C1183.06 1169.13 1191.16 1197.49 1214.45 1221.29C1237.75 1244.59 1266.61 1253.19 1296.99 1261.8C1328.9 1270.92 1361.81 1280.54 1389.66 1308.39C1417.51 1336.24 1427.14 1369.16 1436.25 1401.06C1438.28 1407.64 1440.3 1414.73 1442.33 1421.31L1419.03 1428.4Z" fill="black" fill-opacity="0.3" />
        <path d="M1355.23 1428.91C1349.66 1412.71 1341.05 1392.45 1323.33 1374.73C1300.03 1351.43 1271.17 1342.82 1240.78 1334.22C1208.88 1325.1 1175.97 1315.48 1148.12 1287.63C1120.26 1259.78 1110.64 1226.86 1101.53 1194.96C1092.41 1164.58 1084.31 1136.22 1061.02 1112.42C1037.72 1089.12 1008.86 1080.52 978.476 1071.91C946.573 1062.79 913.658 1053.17 885.806 1025.32C857.955 997.468 848.334 964.552 839.219 932.65C830.104 902.266 822.001 873.909 798.708 850.108C775.414 826.815 746.549 818.206 716.166 809.597C684.264 800.482 651.348 790.861 623.497 763.01C595.646 735.158 586.024 702.243 576.909 670.34C567.794 639.957 559.692 611.599 536.398 587.799C513.104 564.505 484.24 555.897 453.857 547.288C421.954 538.173 389.039 528.552 361.188 500.7C333.336 472.849 323.715 439.934 314.6 408.031C305.485 377.648 297.383 349.29 274.089 325.49C250.795 302.196 221.931 293.587 191.547 284.979C159.645 275.864 126.73 266.242 98.8783 238.391C71.0269 210.54 61.4055 177.624 52.2905 145.722C43.1755 115.338 35.0733 86.9807 11.7794 63.1804C-5.94419 45.4568 -26.7061 36.8482 -42.4042 31.2779L-34.8083 8.99683C-16.5784 15.5799 7.22192 25.7077 28.4902 46.4696C56.3416 74.321 65.963 107.236 75.078 139.139C84.193 169.522 92.2952 197.88 115.589 221.68C138.883 244.974 167.747 253.583 198.13 262.191C230.033 271.306 262.948 280.928 290.8 308.779C318.651 336.63 328.272 369.546 337.387 401.448C346.502 431.831 354.605 460.189 377.898 483.989C401.192 507.283 430.057 515.892 460.44 524.501C492.342 533.616 525.258 543.237 553.109 571.088C580.96 598.94 590.582 631.855 599.697 663.757C608.812 694.141 616.914 722.498 640.208 746.299C663.502 769.593 692.366 778.201 722.749 786.81C754.652 795.925 787.567 805.546 815.418 833.398C843.27 861.249 852.891 894.164 862.006 926.067C871.121 956.45 879.223 984.808 902.517 1008.61C925.811 1031.9 954.675 1040.51 985.058 1049.12C1016.96 1058.23 1049.88 1067.86 1077.73 1095.71C1105.58 1123.56 1115.2 1156.47 1124.32 1188.38C1133.43 1218.76 1141.53 1247.12 1164.83 1270.92C1188.12 1294.21 1216.98 1302.82 1247.37 1311.43C1279.27 1320.54 1312.19 1330.16 1340.04 1358.02C1361.31 1379.28 1371.43 1403.08 1377.51 1421.31L1355.23 1428.91Z" fill="black" fill-opacity="0.3" />
        <path d="M1281.8 1432.46C1279.27 1429.42 1276.74 1426.38 1273.7 1423.85C1250.41 1400.55 1221.54 1391.94 1191.16 1383.34C1159.26 1374.22 1126.34 1364.6 1098.49 1336.75C1070.64 1308.9 1061.02 1275.98 1051.9 1244.08C1042.79 1213.7 1034.68 1185.34 1011.39 1161.54C988.097 1138.24 959.232 1129.64 928.849 1121.03C896.947 1111.91 864.031 1102.29 836.18 1074.44C808.329 1046.59 798.707 1013.67 789.592 981.769C780.477 951.386 772.375 923.028 749.081 899.228C725.787 875.934 696.923 867.326 666.54 858.717C634.637 849.602 601.722 839.981 573.871 812.129C546.019 784.278 536.398 751.363 527.283 719.46C518.168 689.077 510.066 660.719 486.772 636.919C463.478 613.625 434.614 605.016 404.23 596.408C372.328 587.293 339.413 577.671 311.561 549.82C283.71 521.969 274.089 489.053 264.974 457.151C255.859 426.767 247.756 398.41 224.462 374.609C201.169 351.315 172.304 342.707 141.921 334.098C110.019 324.983 77.1033 315.362 49.252 287.51C21.4006 259.659 11.7792 226.744 2.66419 194.841C-6.4508 164.458 -14.553 136.1 -37.8469 112.3C-40.3788 109.768 -43.4172 106.73 -46.4555 104.198L-31.2638 85.9678C-27.7191 89.0061 -24.1744 92.0444 -20.6297 95.5892C7.22169 123.441 16.8431 156.356 25.9581 188.258C35.0731 218.642 43.1753 246.999 66.4692 270.8C89.763 294.094 118.627 302.702 149.011 311.311C180.913 320.426 213.828 330.047 241.68 357.899C269.531 385.75 279.152 418.665 288.267 450.568C297.382 480.951 305.485 509.309 328.779 533.109C352.072 556.403 380.937 565.012 411.32 573.62C443.222 582.735 476.138 592.357 503.989 620.208C531.84 648.059 541.462 680.975 550.577 712.877C559.692 743.26 567.794 771.618 591.088 795.418C614.382 818.712 643.246 827.321 673.629 835.93C705.532 845.044 738.447 854.666 766.298 882.517C794.15 910.369 803.771 943.284 812.886 975.186C822.001 1005.57 830.103 1033.93 853.397 1057.73C876.691 1081.02 905.555 1089.63 935.938 1098.24C967.841 1107.35 1000.76 1116.98 1028.61 1144.83C1056.46 1172.68 1066.08 1205.59 1075.2 1237.5C1084.31 1267.88 1092.41 1296.24 1115.71 1320.04C1139 1343.33 1167.86 1351.94 1198.25 1360.55C1230.15 1369.66 1263.07 1379.28 1290.92 1407.14C1294.46 1410.68 1297.5 1414.23 1300.54 1417.77L1281.8 1432.46Z" fill="black" fill-opacity="0.3" />
        <path d="M1156.22 1436C1151.66 1434.48 1147.1 1433.47 1142.55 1431.95C1110.64 1422.83 1077.73 1413.21 1049.88 1385.36C1022.02 1357.51 1012.4 1324.59 1003.29 1292.69C994.174 1262.31 986.071 1233.95 962.777 1210.15C939.484 1186.86 910.619 1178.25 880.236 1169.64C848.334 1160.52 815.418 1150.9 787.567 1123.05C759.716 1095.2 750.094 1062.29 740.979 1030.38C731.864 1000 723.762 971.642 700.468 947.842C677.174 924.548 648.31 915.939 617.927 907.33C586.024 898.215 553.109 888.594 525.258 860.743C497.406 832.891 487.785 799.976 478.67 768.073C469.555 737.69 461.453 709.332 438.159 685.532C414.865 662.238 386.001 653.63 355.617 645.021C323.715 635.906 290.8 626.285 262.948 598.433C235.097 570.582 225.475 537.667 216.36 505.764C207.245 475.381 199.143 447.023 175.849 423.223C152.555 399.929 123.691 391.32 93.308 382.712C61.4055 373.597 28.4902 363.975 0.63887 336.63C-27.2125 308.779 -36.8339 275.864 -45.9489 243.961C-47.4681 239.404 -48.4808 234.846 -50 230.289L-27.2125 223.199C-25.6933 227.757 -24.1742 232.821 -23.1614 237.378C-14.0464 267.761 -5.94418 296.119 17.3497 319.919C40.6436 343.213 69.5077 351.822 99.8911 360.431C131.794 369.546 164.709 379.167 192.56 407.018C220.412 434.87 230.033 467.785 239.148 499.687C248.263 530.071 256.365 558.429 279.659 582.229C302.953 605.523 331.817 614.131 362.2 622.74C394.103 631.855 427.018 641.476 454.87 669.328C482.721 697.179 492.342 730.094 501.457 761.997C510.572 792.38 518.675 820.738 541.968 844.538C565.262 867.832 594.126 876.441 624.51 885.049C656.412 894.164 689.328 903.786 717.179 931.637C745.03 959.488 754.652 992.404 763.767 1024.31C772.882 1054.69 780.984 1083.05 804.278 1106.85C827.572 1130.14 856.436 1138.75 886.819 1147.36C918.722 1156.47 951.637 1166.1 979.488 1193.95C1007.34 1221.8 1016.96 1254.71 1026.08 1286.62C1035.19 1317 1043.29 1345.36 1066.59 1369.16C1089.88 1392.45 1118.75 1401.06 1149.13 1409.67C1153.69 1411.19 1158.75 1412.2 1163.31 1413.72L1156.22 1436Z" fill="black" fill-opacity="0.3" />
        <path d="M999.237 1432.96C972.399 1405.62 963.284 1373.21 954.169 1341.81C945.054 1311.43 936.951 1283.07 913.658 1259.27C890.364 1235.98 861.5 1227.37 831.116 1218.76C799.214 1209.64 766.298 1200.02 738.447 1172.17C710.596 1144.32 700.974 1111.41 691.859 1079.5C682.744 1049.12 674.642 1020.76 651.348 996.961C628.054 973.667 599.19 965.059 568.807 956.45C536.904 947.335 503.989 937.714 476.138 909.862C448.286 882.011 438.665 849.096 429.55 817.193C420.435 786.81 412.333 758.452 389.039 734.652C365.745 711.358 336.881 702.749 306.498 694.141C274.595 685.026 241.68 675.404 213.828 647.553C185.977 619.702 176.356 586.786 167.241 554.884C158.126 524.501 150.023 496.143 126.73 472.343C103.436 449.049 74.5715 440.44 44.1882 431.831C12.7921 422.716 -19.6168 413.095 -46.9618 386.763L-30.251 369.546C-6.95708 392.333 20.8943 400.435 50.7712 409.044C82.6737 418.159 115.589 427.78 143.44 455.632C171.292 483.483 180.913 516.398 190.028 548.301C199.143 578.684 207.245 607.042 230.539 630.842C253.833 654.136 282.697 662.745 313.081 671.353C344.983 680.468 377.898 690.09 405.75 717.941C433.601 745.792 443.222 778.708 452.337 810.61C461.452 840.993 469.555 869.351 492.849 893.151C516.142 916.445 545.007 925.054 575.39 933.663C607.292 942.778 640.208 952.399 668.059 980.25C695.91 1008.1 705.532 1041.02 714.647 1072.92C723.762 1103.3 731.864 1131.66 755.158 1155.46C778.452 1178.75 807.316 1187.36 837.699 1195.97C869.602 1205.09 902.517 1214.71 930.368 1242.56C958.22 1270.41 967.841 1303.33 976.956 1335.23C985.565 1365.11 994.173 1392.96 1016.45 1416.25L999.237 1432.96Z" fill="black" fill-opacity="0.3" />
        <path d="M917.203 1429.42C912.139 1416.76 908.594 1404.1 905.049 1391.44C895.934 1361.05 887.832 1332.7 864.538 1308.9C841.244 1285.6 812.38 1276.99 781.997 1268.39C750.094 1259.27 717.179 1249.65 689.328 1221.8C661.476 1193.95 651.855 1161.03 642.74 1129.13C633.625 1098.75 625.523 1070.39 602.229 1046.59C578.935 1023.29 550.071 1014.68 519.687 1006.08C487.785 996.961 454.87 987.34 427.018 959.488C399.167 931.637 389.546 898.722 380.43 866.819C371.315 836.436 363.213 808.078 339.919 784.278C316.626 760.984 287.761 752.375 257.378 743.767C225.476 734.652 192.56 725.03 164.709 697.179C136.858 669.328 127.236 636.412 118.121 604.51C109.006 574.127 100.904 545.769 77.6101 521.968C54.3162 498.675 25.452 490.066 -4.93131 481.457C-17.591 477.913 -30.2507 473.862 -42.9105 469.304L-34.3019 447.023C-22.6549 451.58 -11.008 455.125 1.65174 458.67C33.5542 467.785 66.4695 477.406 94.3209 505.258C122.172 533.109 131.794 566.024 140.909 597.927C150.024 628.31 158.126 656.668 181.42 680.468C204.714 703.762 233.578 712.371 263.961 720.979C295.864 730.094 328.779 739.716 356.63 767.567C384.482 795.418 394.103 828.334 403.218 860.236C412.333 890.62 420.435 918.977 443.729 942.778C467.023 966.578 495.887 974.68 526.27 983.289C558.173 992.404 591.088 1002.03 618.94 1029.88C646.791 1057.73 656.412 1090.64 665.527 1122.55C674.642 1152.93 682.745 1181.29 706.039 1205.09C729.332 1228.38 758.197 1236.99 788.58 1245.6C820.482 1254.71 853.398 1264.33 881.249 1292.19C909.1 1320.04 918.722 1352.95 927.837 1384.85C931.381 1397.51 934.926 1409.16 939.484 1420.81L917.203 1429.42Z" fill="black" fill-opacity="0.3" />
        <path d="M851.878 1428.4C844.789 1404.1 835.674 1379.28 814.912 1358.02C791.618 1334.72 762.754 1326.11 732.371 1317.51C700.468 1308.39 667.553 1298.77 639.701 1270.92C611.85 1243.07 602.229 1210.15 593.114 1178.25C583.999 1147.87 575.896 1119.51 552.603 1095.71C529.309 1072.41 500.445 1063.8 470.061 1055.2C438.159 1046.08 405.243 1036.46 377.392 1008.61C349.541 980.757 339.919 947.842 330.804 915.939C321.689 885.556 313.587 857.198 290.293 833.398C266.999 810.104 238.135 801.495 207.752 792.887C175.849 783.772 142.934 774.15 115.083 746.299C87.2313 718.447 77.6099 685.532 68.4949 653.63C59.38 623.246 51.2777 594.889 27.9839 571.088C7.22192 550.326 -18.0975 541.211 -42.4042 534.122L-35.3147 511.334C-9.48891 518.93 19.8816 529.564 44.6947 554.378C72.5461 582.229 82.1674 615.144 91.2824 647.047C100.397 677.43 108.5 705.788 131.794 729.588C155.087 752.882 183.952 761.49 214.335 770.099C246.237 779.214 279.153 788.836 307.004 816.687C334.855 844.538 344.477 877.453 353.592 909.356C362.707 939.739 370.809 968.097 394.103 991.897C417.397 1015.19 446.261 1023.8 476.644 1032.41C508.547 1041.52 541.462 1051.14 569.313 1079C597.165 1106.85 606.786 1139.76 615.901 1171.67C625.016 1202.05 633.118 1230.41 656.412 1254.21C679.706 1277.5 708.57 1286.11 738.954 1294.72C770.856 1303.83 803.771 1313.45 831.623 1341.31C856.436 1366.12 867.07 1395.49 874.666 1421.32L851.878 1428.4Z" fill="black" fill-opacity="0.3" />
        <path d="M784.022 1430.94C778.958 1421.82 772.882 1414.23 765.792 1407.14C742.498 1383.84 713.634 1375.23 683.251 1366.62C651.348 1357.51 618.433 1347.89 590.582 1320.04C562.73 1292.19 553.109 1259.27 543.994 1227.37C534.879 1196.98 526.777 1168.63 503.483 1144.83C480.189 1121.53 451.325 1112.92 420.941 1104.32C389.039 1095.2 356.124 1085.58 328.272 1057.73C300.421 1029.88 290.8 996.961 281.685 965.058C272.57 934.675 264.467 906.317 241.173 882.517C217.88 859.223 189.015 850.615 158.632 842.006C126.73 832.891 93.8144 823.27 65.963 795.418C38.1116 767.567 28.4903 734.652 19.3753 702.749C10.2603 672.366 2.15805 644.008 -21.1358 620.208C-28.2253 613.118 -35.8211 607.042 -44.9361 601.978L-32.7828 581.722C-22.1486 587.799 -13.0336 594.888 -4.425 603.497C23.4264 631.348 33.0478 664.264 42.1628 696.166C51.2778 726.549 59.38 754.907 82.6739 778.707C105.968 802.001 134.832 810.61 165.215 819.218C197.118 828.333 230.033 837.955 257.884 865.806C285.736 893.658 295.357 926.573 304.472 958.475C313.587 988.859 321.689 1017.22 344.983 1041.02C368.277 1064.31 397.141 1072.92 427.525 1081.53C459.427 1090.64 492.342 1100.26 520.194 1128.12C548.045 1155.97 557.666 1188.88 566.781 1220.78C575.896 1251.17 583.999 1279.53 607.293 1303.33C630.586 1326.62 659.451 1335.23 689.834 1343.84C721.736 1352.95 754.652 1362.57 782.503 1390.42C791.112 1399.03 798.201 1408.15 804.278 1418.78L784.022 1430.94Z" fill="black" fill-opacity="0.3" />
        <path d="M687.808 1435.49C671.097 1426.88 653.374 1421.31 634.131 1415.74C602.229 1406.63 569.313 1397.01 541.462 1369.16C513.611 1341.31 503.989 1308.39 494.874 1276.49C485.759 1246.1 477.657 1217.75 454.363 1193.95C431.069 1170.65 402.205 1162.04 371.822 1153.44C339.919 1144.32 307.004 1134.7 279.153 1106.85C251.301 1079 241.68 1046.08 232.565 1014.18C223.45 983.795 215.348 955.437 192.054 931.637C168.76 907.837 139.896 899.734 109.512 891.126C77.6098 882.011 44.6946 872.389 16.8432 844.538C-11.0082 816.687 -20.6296 783.771 -29.7446 751.869C-35.3148 733.132 -40.3787 714.902 -49.4937 698.192L-28.7318 687.051C-18.604 705.787 -13.0337 726.043 -7.46346 745.286C1.65154 775.669 9.75376 804.027 33.0476 827.827C56.3415 851.121 85.2057 859.73 115.589 868.338C147.492 877.453 180.407 887.075 208.258 914.926C236.11 942.777 245.731 975.693 254.846 1007.6C263.961 1037.98 272.063 1066.34 295.357 1090.14C318.651 1113.43 347.515 1122.04 377.898 1130.65C409.801 1139.76 442.716 1149.38 470.568 1177.24C498.419 1205.09 508.04 1238 517.155 1269.9C526.27 1300.29 534.372 1328.65 557.666 1352.45C580.96 1375.74 609.824 1384.35 640.208 1392.96C659.45 1398.53 679.2 1404.6 698.442 1414.23L687.808 1435.49Z" fill="black" fill-opacity="0.3" />
        <path d="M512.598 1434.48C505.509 1429.42 498.926 1423.85 492.849 1417.77C464.997 1389.92 455.376 1357 446.261 1325.1C437.146 1294.72 429.044 1266.36 405.75 1242.56C382.456 1219.27 353.592 1210.66 323.209 1202.05C291.306 1192.93 258.391 1183.31 230.54 1155.46C202.688 1127.61 193.067 1094.69 183.952 1062.79C174.837 1032.41 166.735 1004.05 143.441 980.25C120.147 956.956 91.2827 948.348 60.8993 939.739C28.9968 930.624 -3.91844 921.003 -31.7698 893.151C-37.8465 887.075 -43.4168 880.492 -48.4807 873.402L-28.7315 860.236C-24.6804 866.313 -20.1229 871.883 -15.059 876.947C8.23489 900.241 37.0991 908.849 67.4824 917.458C99.3849 926.573 132.3 936.194 160.152 964.046C188.003 991.897 197.624 1024.81 206.739 1056.71C215.854 1087.1 223.957 1115.46 247.25 1139.26C270.544 1162.55 299.408 1171.16 329.792 1179.77C361.694 1188.88 394.61 1198.5 422.461 1226.36C450.312 1254.21 459.934 1287.12 469.049 1319.02C478.164 1349.41 486.266 1377.77 509.56 1401.57C514.624 1406.63 520.194 1411.19 526.271 1415.24L512.598 1434.48Z" fill="black" fill-opacity="0.3" />
    </g>
</svg>
