<svg width="1440" height="384" viewBox="0 0 1440 384" fill="none" xmlns="http://www.w3.org/2000/svg">
    <g clip-path="url(#clip0)">
        <g filter="url(#filter0_d)">
            <path d="M95.264 294.12C73.216 294.12 54.496 291.104 39.104 285.072C23.92 279.04 12.48 271.032 4.78397 261.048C-2.91203 250.856 -6.96803 239.728 -7.38403 227.664C-7.38403 225.792 -6.76003 224.232 -5.51203 222.984C-4.05603 221.528 -2.39203 220.8 -0.520032 220.8H58.76C61.672 220.8 63.96 221.216 65.624 222.048C67.496 222.672 69.68 224.024 72.176 226.104C78.208 230.888 85.904 233.28 95.264 233.28C102.336 233.28 107.952 232.552 112.112 231.096C116.48 229.432 118.664 227.248 118.664 224.544C118.664 220.8 115.856 217.992 110.24 216.12C104.624 214.04 94.016 211.96 78.416 209.88C24.752 202.808 -2.08003 179.928 -2.08003 141.24C-2.08003 127.304 1.87197 114.928 9.77597 104.112C17.888 93.088 29.12 84.56 43.472 78.528C57.824 72.496 74.36 69.48 93.08 69.48C112.632 69.48 129.792 72.808 144.56 79.464C159.328 86.12 170.664 94.544 178.568 104.736C186.472 114.72 190.632 124.496 191.048 134.064C191.048 135.936 190.32 137.6 188.864 139.056C187.616 140.304 186.16 140.928 184.496 140.928H122.096C119.184 140.928 116.896 140.616 115.232 139.992C113.568 139.16 111.696 137.808 109.616 135.936C105.248 132.192 99.736 130.32 93.08 130.32C83.096 130.32 78.104 133.232 78.104 139.056C78.104 142.176 80.496 144.776 85.28 146.856C90.272 148.936 99.424 150.808 112.736 152.472C133.536 155.176 150.176 159.232 162.656 164.64C175.344 170.048 184.496 177.328 190.112 186.48C195.936 195.424 198.848 206.76 198.848 220.488C198.848 235.256 194.376 248.256 185.432 259.488C176.488 270.512 164.112 279.04 148.304 285.072C132.704 291.104 115.024 294.12 95.264 294.12ZM298.459 294.12C241.259 294.12 211.099 270.928 207.979 224.544C207.771 221.424 207.667 216.536 207.667 209.88C207.667 203.224 207.771 198.336 207.979 195.216C209.435 172.544 218.067 155.28 233.875 143.424C249.683 131.568 271.211 125.64 298.459 125.64C325.707 125.64 347.235 131.568 363.043 143.424C378.851 155.28 387.483 172.544 388.939 195.216C389.355 201.456 389.563 206.344 389.563 209.88C389.563 213.416 389.355 218.304 388.939 224.544C385.819 270.928 355.659 294.12 298.459 294.12ZM298.459 244.2C304.075 244.2 307.715 242.744 309.379 239.832C311.043 236.712 312.083 231.096 312.499 222.984C312.707 220.904 312.811 216.536 312.811 209.88C312.811 203.224 312.707 198.856 312.499 196.776C311.875 188.872 310.731 183.36 309.067 180.24C307.403 177.12 303.867 175.56 298.459 175.56C293.051 175.56 289.515 177.12 287.851 180.24C286.187 183.36 285.043 188.872 284.419 196.776L284.107 209.88L284.419 222.984C284.835 231.096 285.875 236.712 287.539 239.832C289.203 242.744 292.843 244.2 298.459 244.2ZM414.711 291C412.423 291 410.447 290.168 408.783 288.504C407.119 286.84 406.287 284.864 406.287 282.576V137.184C406.287 134.896 407.119 132.92 408.783 131.256C410.447 129.592 412.423 128.76 414.711 128.76H469.311C471.599 128.76 473.575 129.592 475.239 131.256C476.903 132.92 477.735 134.896 477.735 137.184V147.48C483.143 141.032 490.423 135.832 499.575 131.88C508.935 127.72 518.919 125.64 529.527 125.64C540.551 125.64 550.639 128.24 559.791 133.44C568.943 138.432 576.223 146.232 581.631 156.84C587.247 167.448 590.055 180.656 590.055 196.464V282.576C590.055 284.864 589.223 286.84 587.559 288.504C585.895 290.168 583.919 291 581.631 291H522.039C519.751 291 517.775 290.168 516.111 288.504C514.447 286.84 513.615 284.864 513.615 282.576V198.648C513.615 193.032 512.263 188.768 509.559 185.856C506.855 182.944 503.007 181.488 498.015 181.488C493.023 181.488 489.175 182.944 486.471 185.856C483.767 188.768 482.415 193.032 482.415 198.648V282.576C482.415 284.864 481.583 286.84 479.919 288.504C478.255 290.168 476.279 291 473.991 291H414.711ZM701.697 359.64C680.065 359.64 662.281 356.104 648.345 349.032C634.617 342.168 624.633 334.264 618.393 325.32C612.153 316.376 609.033 308.992 609.033 303.168C609.033 301.088 609.865 299.216 611.529 297.552C613.193 296.096 615.169 295.368 617.457 295.368H678.297C680.585 295.368 682.353 295.888 683.601 296.928C684.849 297.968 685.993 299.528 687.033 301.608C688.489 304.52 690.153 306.496 692.025 307.536C693.897 308.784 696.601 309.408 700.137 309.408C709.081 309.408 713.553 303.272 713.553 291V270.408C703.361 279.352 689.529 283.824 672.057 283.824C651.465 283.824 635.657 278.416 624.633 267.6C613.609 256.576 607.369 238.48 605.913 213.312L605.601 205.2C605.601 178.576 611.321 158.712 622.761 145.608C634.409 132.296 650.841 125.64 672.057 125.64C681.833 125.64 690.673 127.616 698.577 131.568C706.481 135.312 713.033 140.408 718.233 146.856V137.184C718.233 134.896 719.065 132.92 720.729 131.256C722.393 129.592 724.369 128.76 726.657 128.76H781.257C783.545 128.76 785.521 129.592 787.185 131.256C788.849 132.92 789.681 134.896 789.681 137.184L789.993 285.696C789.993 310.656 781.881 329.168 765.657 341.232C749.433 353.504 728.113 359.64 701.697 359.64ZM697.953 229.536C703.153 229.536 706.897 228.288 709.185 225.792C711.681 223.088 713.137 219.136 713.553 213.936C713.761 212.896 713.865 210.088 713.865 205.512C713.865 197.192 712.721 191.16 710.433 187.416C708.353 183.464 704.193 181.488 697.953 181.488C692.545 181.488 688.697 183.048 686.409 186.168C684.121 189.08 682.769 193.552 682.353 199.584L682.041 205.512C682.041 213.624 683.081 219.656 685.161 223.608C687.449 227.56 691.713 229.536 697.953 229.536Z" fill="#FF5959" />
            <path d="M955.046 72.6001H1016.2C1018.49 72.6001 1020.46 73.4321 1022.13 75.0961C1023.79 76.7601 1024.62 78.7361 1024.62 81.0241V282.576C1024.62 284.864 1023.79 286.84 1022.13 288.504C1020.46 290.168 1018.49 291 1016.2 291H955.046C952.758 291 950.782 290.168 949.118 288.504C947.454 286.84 946.622 284.864 946.622 282.576V215.184H896.078V282.576C896.078 284.864 895.246 286.84 893.582 288.504C891.918 290.168 889.942 291 887.654 291H826.502C824.214 291 822.238 290.272 820.574 288.816C818.91 287.152 818.078 285.072 818.078 282.576V81.0241C818.078 78.7361 818.91 76.7601 820.574 75.0961C822.238 73.4321 824.214 72.6001 826.502 72.6001H887.654C889.942 72.6001 891.918 73.4321 893.582 75.0961C895.246 76.7601 896.078 78.7361 896.078 81.0241V146.544H946.622V81.0241C946.622 78.7361 947.454 76.7601 949.118 75.0961C950.782 73.4321 952.758 72.6001 955.046 72.6001ZM1052.7 223.296V137.184C1052.7 134.896 1053.53 132.92 1055.2 131.256C1056.86 129.592 1058.84 128.76 1061.12 128.76H1120.72C1123 128.76 1124.98 129.592 1126.64 131.256C1128.31 132.92 1129.14 134.896 1129.14 137.184V221.112C1129.14 232.552 1134.34 238.272 1144.74 238.272C1155.14 238.272 1160.34 232.552 1160.34 221.112V137.184C1160.34 134.896 1161.17 132.92 1162.84 131.256C1164.5 129.592 1166.48 128.76 1168.76 128.76H1228.04C1230.33 128.76 1232.31 129.592 1233.97 131.256C1235.64 132.92 1236.47 134.896 1236.47 137.184V282.576C1236.47 284.864 1235.64 286.84 1233.97 288.504C1232.31 290.168 1230.33 291 1228.04 291H1173.44C1171.16 291 1169.18 290.168 1167.52 288.504C1165.85 286.84 1165.02 284.864 1165.02 282.576V272.28C1155.24 286.84 1137.98 294.12 1113.23 294.12C1096.17 294.12 1081.82 288.192 1070.17 276.336C1058.52 264.272 1052.7 246.592 1052.7 223.296ZM1256.62 213.312V197.4C1256.62 174.104 1262.86 156.32 1275.34 144.048C1287.82 131.776 1303.73 125.64 1323.08 125.64C1342.42 125.64 1357.71 132.712 1368.94 146.856V137.184C1368.94 134.896 1369.77 132.92 1371.44 131.256C1373.1 129.592 1375.08 128.76 1377.36 128.76H1431.96C1434.25 128.76 1436.23 129.592 1437.89 131.256C1439.56 132.92 1440.39 134.896 1440.39 137.184L1440.7 285.696C1440.7 310.656 1432.59 329.168 1416.36 341.232C1400.14 353.504 1378.82 359.64 1352.4 359.64C1335.97 359.64 1321.31 357.352 1308.41 352.776C1295.52 348.408 1285.84 343 1279.4 336.552C1266.29 323.656 1259.74 312.736 1259.74 303.792C1259.74 301.504 1260.57 299.528 1262.24 297.864C1263.9 296.2 1265.88 295.368 1268.16 295.368H1329C1332.75 295.368 1335.76 297.656 1338.05 302.232C1340.55 307.016 1344.81 309.408 1350.84 309.408C1359.79 309.408 1364.26 303.792 1364.26 292.56V270.408C1354.07 279.352 1339.61 283.824 1320.89 283.824C1302.38 283.824 1286.99 278.208 1274.72 266.976C1262.65 255.744 1256.62 237.856 1256.62 213.312ZM1348.66 229.536C1358.44 229.536 1363.64 224.336 1364.26 213.936V197.088C1363.64 186.688 1358.44 181.488 1348.66 181.488C1338.26 181.488 1333.06 187.52 1333.06 199.584V211.44C1333.06 223.504 1338.26 229.536 1348.66 229.536Z" fill="white" />
        </g>
        <path d="M1098 112C1110.7 112 1121 101.703 1121 89C1121 76.2975 1110.7 66 1098 66C1085.3 66 1075 76.2975 1075 89C1075 101.703 1085.3 112 1098 112Z" fill="#FF5959" />
        <path d="M1192 112C1204.7 112 1215 101.703 1215 89C1215 76.2975 1204.7 66 1192 66C1179.3 66 1169 76.2975 1169 89C1169 101.703 1179.3 112 1192 112Z" fill="#FF5959" />
    </g>
    <defs>
        <filter id="filter0_d" x="-7.38403" y="69.48" width="1472.08" height="314.16" filterUnits="userSpaceOnUse" color-interpolation-filters="sRGB">
            <feFlood flood-opacity="0" result="BackgroundImageFix" />
            <feColorMatrix in="SourceAlpha" type="matrix" values="0 0 0 0 0 0 0 0 0 0 0 0 0 0 0 0 0 0 127 0" />
            <feOffset dx="20" dy="20" />
            <feGaussianBlur stdDeviation="2" />
            <feColorMatrix type="matrix" values="0 0 0 0 0 0 0 0 0 0 0 0 0 0 0 0 0 0 0.25 0" />
            <feBlend mode="normal" in2="BackgroundImageFix" result="effect1_dropShadow" />
            <feBlend mode="normal" in="SourceGraphic" in2="effect1_dropShadow" result="shape" />
        </filter>
        <clipPath id="clip0">
            <rect width="1440" height="384" fill="white" />
        </clipPath>
    </defs>
</svg>
