<svg width="1440" height="318" viewBox="0 0 1440 318" fill="none" xmlns="http://www.w3.org/2000/svg">
<g filter="url(#filter0_d)">
<path d="M95.2642 228.12C73.2162 228.12 54.4962 225.104 39.1042 219.072C23.9202 213.04 12.4802 205.032 4.78421 195.048C-2.91179 184.856 -6.96779 173.728 -7.38379 161.664C-7.38379 159.792 -6.75979 158.232 -5.51179 156.984C-4.05579 155.528 -2.39179 154.8 -0.519788 154.8H58.7602C61.6722 154.8 63.9602 155.216 65.6242 156.048C67.4962 156.672 69.6802 158.024 72.1762 160.104C78.2082 164.888 85.9042 167.28 95.2642 167.28C102.336 167.28 107.952 166.552 112.112 165.096C116.48 163.432 118.664 161.248 118.664 158.544C118.664 154.8 115.856 151.992 110.24 150.12C104.624 148.04 94.0162 145.96 78.4162 143.88C24.7522 136.808 -2.07979 113.928 -2.07979 75.24C-2.07979 61.304 1.87221 48.928 9.77621 38.112C17.8882 27.088 29.1202 18.56 43.4722 12.528C57.8242 6.49598 74.3602 3.47998 93.0802 3.47998C112.632 3.47998 129.792 6.80797 144.56 13.464C159.328 20.12 170.664 28.544 178.568 38.736C186.472 48.72 190.632 58.496 191.048 68.064C191.048 69.936 190.32 71.6 188.864 73.056C187.616 74.304 186.16 74.928 184.496 74.928H122.096C119.184 74.928 116.896 74.616 115.232 73.992C113.568 73.16 111.696 71.808 109.616 69.936C105.248 66.192 99.7362 64.32 93.0802 64.32C83.0962 64.32 78.1042 67.232 78.1042 73.056C78.1042 76.176 80.4962 78.776 85.2802 80.856C90.2722 82.936 99.4242 84.808 112.736 86.472C133.536 89.176 150.176 93.232 162.656 98.64C175.344 104.048 184.496 111.328 190.112 120.48C195.936 129.424 198.848 140.76 198.848 154.488C198.848 169.256 194.376 182.256 185.432 193.488C176.488 204.512 164.112 213.04 148.304 219.072C132.704 225.104 115.024 228.12 95.2642 228.12ZM298.459 228.12C241.259 228.12 211.099 204.928 207.979 158.544C207.771 155.424 207.667 150.536 207.667 143.88C207.667 137.224 207.771 132.336 207.979 129.216C209.435 106.544 218.067 89.28 233.875 77.424C249.683 65.568 271.211 59.64 298.459 59.64C325.707 59.64 347.235 65.568 363.043 77.424C378.851 89.28 387.483 106.544 388.939 129.216C389.355 135.456 389.563 140.344 389.563 143.88C389.563 147.416 389.355 152.304 388.939 158.544C385.819 204.928 355.659 228.12 298.459 228.12ZM298.459 178.2C304.075 178.2 307.715 176.744 309.379 173.832C311.043 170.712 312.083 165.096 312.499 156.984C312.707 154.904 312.811 150.536 312.811 143.88C312.811 137.224 312.707 132.856 312.499 130.776C311.875 122.872 310.731 117.36 309.067 114.24C307.403 111.12 303.867 109.56 298.459 109.56C293.051 109.56 289.515 111.12 287.851 114.24C286.187 117.36 285.043 122.872 284.419 130.776L284.107 143.88L284.419 156.984C284.835 165.096 285.875 170.712 287.539 173.832C289.203 176.744 292.843 178.2 298.459 178.2ZM414.711 225C412.423 225 410.447 224.168 408.783 222.504C407.119 220.84 406.287 218.864 406.287 216.576V71.184C406.287 68.896 407.119 66.92 408.783 65.256C410.447 63.592 412.423 62.76 414.711 62.76H469.311C471.599 62.76 473.575 63.592 475.239 65.256C476.903 66.92 477.735 68.896 477.735 71.184V81.48C483.143 75.032 490.423 69.832 499.575 65.88C508.935 61.72 518.919 59.64 529.527 59.64C540.551 59.64 550.639 62.24 559.791 67.44C568.943 72.432 576.223 80.232 581.631 90.84C587.247 101.448 590.055 114.656 590.055 130.464V216.576C590.055 218.864 589.223 220.84 587.559 222.504C585.895 224.168 583.919 225 581.631 225H522.039C519.751 225 517.775 224.168 516.111 222.504C514.447 220.84 513.615 218.864 513.615 216.576V132.648C513.615 127.032 512.263 122.768 509.559 119.856C506.855 116.944 503.007 115.488 498.015 115.488C493.023 115.488 489.175 116.944 486.471 119.856C483.767 122.768 482.415 127.032 482.415 132.648V216.576C482.415 218.864 481.583 220.84 479.919 222.504C478.255 224.168 476.279 225 473.991 225H414.711ZM701.697 293.64C680.065 293.64 662.281 290.104 648.345 283.032C634.617 276.168 624.633 268.264 618.393 259.32C612.153 250.376 609.033 242.992 609.033 237.168C609.033 235.088 609.865 233.216 611.529 231.552C613.193 230.096 615.169 229.368 617.457 229.368H678.297C680.585 229.368 682.353 229.888 683.601 230.928C684.849 231.968 685.993 233.528 687.033 235.608C688.489 238.52 690.153 240.496 692.025 241.536C693.897 242.784 696.601 243.408 700.137 243.408C709.081 243.408 713.553 237.272 713.553 225V204.408C703.361 213.352 689.529 217.824 672.057 217.824C651.465 217.824 635.657 212.416 624.633 201.6C613.609 190.576 607.369 172.48 605.913 147.312L605.601 139.2C605.601 112.576 611.321 92.712 622.761 79.608C634.409 66.296 650.841 59.64 672.057 59.64C681.833 59.64 690.673 61.616 698.577 65.568C706.481 69.312 713.033 74.408 718.233 80.856V71.184C718.233 68.896 719.065 66.92 720.729 65.256C722.393 63.592 724.369 62.76 726.657 62.76H781.257C783.545 62.76 785.521 63.592 787.185 65.256C788.849 66.92 789.681 68.896 789.681 71.184L789.993 219.696C789.993 244.656 781.881 263.168 765.657 275.232C749.433 287.504 728.113 293.64 701.697 293.64ZM697.953 163.536C703.153 163.536 706.897 162.288 709.185 159.792C711.681 157.088 713.137 153.136 713.553 147.936C713.761 146.896 713.865 144.088 713.865 139.512C713.865 131.192 712.721 125.16 710.433 121.416C708.353 117.464 704.193 115.488 697.953 115.488C692.545 115.488 688.697 117.048 686.409 120.168C684.121 123.08 682.769 127.552 682.353 133.584L682.041 139.512C682.041 147.624 683.081 153.656 685.161 157.608C687.449 161.56 691.713 163.536 697.953 163.536Z" fill="#FF5959"/>
<path d="M955.046 6.59998H1016.2C1018.49 6.59998 1020.46 7.43198 1022.13 9.09598C1023.79 10.76 1024.62 12.736 1024.62 15.024V216.576C1024.62 218.864 1023.79 220.84 1022.13 222.504C1020.46 224.168 1018.49 225 1016.2 225H955.046C952.758 225 950.782 224.168 949.118 222.504C947.454 220.84 946.622 218.864 946.622 216.576V149.184H896.078V216.576C896.078 218.864 895.246 220.84 893.582 222.504C891.918 224.168 889.942 225 887.654 225H826.502C824.214 225 822.238 224.272 820.574 222.816C818.91 221.152 818.078 219.072 818.078 216.576V15.024C818.078 12.736 818.91 10.76 820.574 9.09598C822.238 7.43198 824.214 6.59998 826.502 6.59998H887.654C889.942 6.59998 891.918 7.43198 893.582 9.09598C895.246 10.76 896.078 12.736 896.078 15.024V80.544H946.622V15.024C946.622 12.736 947.454 10.76 949.118 9.09598C950.782 7.43198 952.758 6.59998 955.046 6.59998ZM1052.7 157.296V71.184C1052.7 68.896 1053.53 66.92 1055.2 65.256C1056.86 63.592 1058.84 62.76 1061.12 62.76H1120.72C1123 62.76 1124.98 63.592 1126.64 65.256C1128.31 66.92 1129.14 68.896 1129.14 71.184V155.112C1129.14 166.552 1134.34 172.272 1144.74 172.272C1155.14 172.272 1160.34 166.552 1160.34 155.112V71.184C1160.34 68.896 1161.17 66.92 1162.84 65.256C1164.5 63.592 1166.48 62.76 1168.76 62.76H1228.04C1230.33 62.76 1232.31 63.592 1233.97 65.256C1235.64 66.92 1236.47 68.896 1236.47 71.184V216.576C1236.47 218.864 1235.64 220.84 1233.97 222.504C1232.31 224.168 1230.33 225 1228.04 225H1173.44C1171.16 225 1169.18 224.168 1167.52 222.504C1165.85 220.84 1165.02 218.864 1165.02 216.576V206.28C1155.24 220.84 1137.98 228.12 1113.23 228.12C1096.17 228.12 1081.82 222.192 1070.17 210.336C1058.52 198.272 1052.7 180.592 1052.7 157.296ZM1256.62 147.312V131.4C1256.62 108.104 1262.86 90.32 1275.34 78.048C1287.82 65.776 1303.73 59.64 1323.08 59.64C1342.42 59.64 1357.71 66.712 1368.94 80.856V71.184C1368.94 68.896 1369.77 66.92 1371.44 65.256C1373.1 63.592 1375.08 62.76 1377.36 62.76H1431.96C1434.25 62.76 1436.23 63.592 1437.89 65.256C1439.56 66.92 1440.39 68.896 1440.39 71.184L1440.7 219.696C1440.7 244.656 1432.59 263.168 1416.36 275.232C1400.14 287.504 1378.82 293.64 1352.4 293.64C1335.97 293.64 1321.31 291.352 1308.41 286.776C1295.52 282.408 1285.84 277 1279.4 270.552C1266.29 257.656 1259.74 246.736 1259.74 237.792C1259.74 235.504 1260.57 233.528 1262.24 231.864C1263.9 230.2 1265.88 229.368 1268.16 229.368H1329C1332.75 229.368 1335.76 231.656 1338.05 236.232C1340.55 241.016 1344.81 243.408 1350.84 243.408C1359.79 243.408 1364.26 237.792 1364.26 226.56V204.408C1354.07 213.352 1339.61 217.824 1320.89 217.824C1302.38 217.824 1286.99 212.208 1274.72 200.976C1262.65 189.744 1256.62 171.856 1256.62 147.312ZM1348.66 163.536C1358.44 163.536 1363.64 158.336 1364.26 147.936V131.088C1363.64 120.688 1358.44 115.488 1348.66 115.488C1338.26 115.488 1333.06 121.52 1333.06 133.584V145.44C1333.06 157.504 1338.26 163.536 1348.66 163.536Z" fill="white"/>
</g>
<path d="M1091 46C1103.7 46 1114 35.7025 1114 23C1114 10.2975 1103.7 0 1091 0C1078.3 0 1068 10.2975 1068 23C1068 35.7025 1078.3 46 1091 46Z" fill="#FF5959"/>
<path d="M1198 46C1210.7 46 1221 35.7025 1221 23C1221 10.2975 1210.7 0 1198 0C1185.3 0 1175 10.2975 1175 23C1175 35.7025 1185.3 46 1198 46Z" fill="#FF5959"/>
<defs>
<filter id="filter0_d" x="-7.38379" y="3.47998" width="1472.08" height="314.16" filterUnits="userSpaceOnUse" color-interpolation-filters="sRGB">
<feFlood flood-opacity="0" result="BackgroundImageFix"/>
<feColorMatrix in="SourceAlpha" type="matrix" values="0 0 0 0 0 0 0 0 0 0 0 0 0 0 0 0 0 0 127 0"/>
<feOffset dx="20" dy="20"/>
<feGaussianBlur stdDeviation="2"/>
<feColorMatrix type="matrix" values="0 0 0 0 0 0 0 0 0 0 0 0 0 0 0 0 0 0 0.25 0"/>
<feBlend mode="normal" in2="BackgroundImageFix" result="effect1_dropShadow"/>
<feBlend mode="normal" in="SourceGraphic" in2="effect1_dropShadow" result="shape"/>
</filter>
</defs>
</svg>
